<?xml version="1.0" encoding="utf-8"?>
<!-- Generator: Adobe Illustrator 25.4.1, SVG Export Plug-In . SVG Version: 6.00 Build 0)  -->
<svg version="1.1" id="Layer_1" xmlns="http://www.w3.org/2000/svg" xmlns:xlink="http://www.w3.org/1999/xlink" x="0px" y="0px"
	 viewBox="0 0 24 14.2" style="enable-background:new 0 0 24 14.2;" xml:space="preserve">
<g transform="translate(0,-952.36218)">
	<path d="M23.5,959.4c0-0.2-0.1-0.5-0.3-0.7l-5.4-5.7c-0.4-0.3-1.1-0.5-1.5-0.1c-0.4,0.4-0.4,1.1,0,1.5l3.8,4H1.5c-0.6,0-1,0.5-1,1
		c0,0.6,0.5,1,1,1h18.6l-3.8,4c-0.3,0.3-0.4,1.1,0,1.5c0.4,0.4,1.1,0.3,1.5-0.1l5.4-5.7C23.4,959.9,23.5,959.7,23.5,959.4
		L23.5,959.4z"/>
</g>
</svg>
