<?xml version="1.0" encoding="utf-8"?>
<!-- Generator: Adobe Illustrator 25.4.1, SVG Export Plug-In . SVG Version: 6.00 Build 0)  -->
<svg version="1.1" id="Layer_1" xmlns="http://www.w3.org/2000/svg" xmlns:xlink="http://www.w3.org/1999/xlink" x="0px" y="0px"
	 viewBox="0 0 70 71.2" style="enable-background:new 0 0 70 71.2;" xml:space="preserve">
<style type="text/css">
	.st0{fill-rule:evenodd;clip-rule:evenodd;}
</style>
<path class="st0" d="M1.5,69.1c1,1,2,1.5,3.5,1.5s2.5-0.5,3.5-1.5L35,42.6l26.5,26.5c1,1,2.5,1.5,3.5,1.5s2.5-0.5,3.5-1.5
	c2-2,2-5,0-7L42,35.6L68.5,9.1c2-2,2-5,0-7s-5-2-7,0L35,28.6L8.5,2.1c-2-2-5-2-7,0s-2,5,0,7L28,35.6L1.5,62.1
	C-0.5,64.1-0.5,67.1,1.5,69.1L1.5,69.1z"/>
</svg>
