<svg xmlns="http://www.w3.org/2000/svg" viewBox="0 0 306 304"><defs><style>.cls-1{fill:#231f20;}</style></defs><g id="info"><path class="cls-1" d="M153,27A125,125,0,1,0,278,152,125,125,0,0,0,153,27Zm81.32,206.32A115,115,0,1,1,268,152,114.25,114.25,0,0,1,234.32,233.32Z"/><path class="cls-1" d="M145.42,182.11a18.81,18.81,0,0,0-13.66,5.59,18.52,18.52,0,0,0-5.68,13.76,19,19,0,0,0,5.68,13.76,19.15,19.15,0,0,0,27.42,0,19.15,19.15,0,0,0,5.59-13.76,19.09,19.09,0,0,0-19.35-19.35Z"/><path class="cls-1" d="M179.12,86.69A80.86,80.86,0,0,0,154.4,83q-19.76,0-33.91,7.38t-19.74,21.34l27.32,10a18.31,18.31,0,0,1,9.48-11,34.92,34.92,0,0,1,15.65-3.39q9.57,0,15.26,3.19t5.68,8.18a8.44,8.44,0,0,1-4.59,7.67q-4.59,2.7-14,7.08a81.38,81.38,0,0,0-14.36,8.48A26.61,26.61,0,0,0,133,152.2q-2.7,6-3.09,15.55v2.4h30.71l.2-2q.79-7,5.58-10.57a80.26,80.26,0,0,1,13.76-7.77A62.93,62.93,0,0,0,198,137.54q7.28-7.28,7.28-20.44,0-11.76-7.28-19.24A44.71,44.71,0,0,0,179.12,86.69Z"/></g></svg>