<?xml version="1.0" encoding="utf-8"?>
<!-- Generator: Adobe Illustrator 27.3.1, SVG Export Plug-In . SVG Version: 6.00 Build 0)  -->
<svg version="1.1" id="Layer_1" xmlns="http://www.w3.org/2000/svg" xmlns:xlink="http://www.w3.org/1999/xlink" x="0px" y="0px"
	 viewBox="0 0 89 89" style="enable-background:new 0 0 89 89;" xml:space="preserve">
<g>
	<path d="M82.5,67.7c4.3-7,6.6-15,6.5-23.2l0,0l0,0c0-8.2-2.3-16.2-6.5-23.2l0,0C69.6,0.3,42.2-6.3,21.2,6.6
		c-6,3.7-11,8.7-14.7,14.7l0,0c-8.7,14.3-8.7,32.2,0,46.5l0,0c12.9,20.9,40.3,27.5,61.2,14.7C73.7,78.8,78.8,73.7,82.5,67.7
		L82.5,67.7z M50.2,81.4c-0.8,0.8-1.8,1.5-2.9,2c-1.8,0.8-3.8,0.8-5.6,0c-2-1-3.8-2.6-5-4.4c-2.6-3.8-4.6-8-5.7-12.5
		C35.4,66.2,40,66,44.5,66c4.5,0,9.1,0.1,13.6,0.4c-0.7,2.3-1.5,4.5-2.4,6.7C54.4,76.2,52.5,79,50.2,81.4L50.2,81.4z M5.1,47H23
		c0.1,5,0.7,10,1.6,14.9c-4.9,0.4-9.8,1-14.7,1.8C7.1,58.6,5.4,52.9,5.1,47z M10,25.3c4.9,0.8,9.8,1.3,14.7,1.8
		C23.7,32,23.2,37,23,42h-18C5.4,36.1,7.1,30.4,10,25.3L10,25.3z M38.8,7.6c0.8-0.8,1.8-1.5,2.9-2c1.8-0.8,3.8-0.8,5.6,0
		c2,1,3.8,2.6,5,4.4c2.6,3.8,4.6,8,5.7,12.5C53.6,22.8,49,23,44.5,23c-4.5,0-9.1-0.1-13.6-0.4c0.7-2.3,1.5-4.5,2.4-6.7
		C34.6,12.8,36.5,10,38.8,7.6z M83.9,42H66c-0.1-5-0.7-10-1.6-14.9c4.9-0.4,9.8-1,14.7-1.8C81.9,30.4,83.6,36.1,83.9,42z M29.7,61.5
		c-1-4.8-1.5-9.6-1.7-14.5H61c-0.1,4.9-0.7,9.7-1.6,14.5c-4.9-0.3-9.9-0.5-14.8-0.5C39.6,61,34.6,61.2,29.7,61.5z M59.3,27.5
		c1,4.8,1.5,9.6,1.7,14.5H28c0.1-4.9,0.7-9.7,1.6-14.5c4.9,0.3,9.9,0.5,14.8,0.5C49.4,28,54.4,27.8,59.3,27.5L59.3,27.5z M66,47h18
		c-0.4,5.9-2,11.6-4.9,16.7c-4.9-0.8-9.8-1.3-14.7-1.8C65.3,57,65.8,52,66,47z M76,20.7c-4.3,0.6-8.5,1.1-12.8,1.5
		c-0.8-2.9-1.8-5.7-3-8.4c-1.1-2.5-2.5-4.9-4.1-7C64,9.2,71,14.1,76,20.7z M16.6,16.6c4.6-4.6,10.2-7.9,16.4-9.8
		c-0.1,0.1-0.2,0.2-0.3,0.4c-3.2,4.6-5.5,9.7-6.8,15.1c-4.3-0.4-8.6-0.9-12.8-1.5C14.1,19.3,15.3,17.9,16.6,16.6z M13,68.3
		c4.3-0.6,8.5-1.1,12.8-1.5c0.8,2.9,1.8,5.7,3,8.4c1.1,2.5,2.5,4.9,4.1,7C25,79.8,18,74.9,13,68.3L13,68.3z M72.4,72.4
		c-4.6,4.6-10.2,7.9-16.4,9.8c0.1-0.1,0.2-0.2,0.3-0.4c3.2-4.6,5.5-9.7,6.8-15.1c4.3,0.4,8.6,0.9,12.8,1.5
		C74.9,69.8,73.7,71.1,72.4,72.4L72.4,72.4z"/>
</g>
</svg>
