<svg id="Layer_1" data-name="Layer 1" xmlns="http://www.w3.org/2000/svg" viewBox="0 0 300 279.07"><defs><style>.cls-1{fill:#3f2812;}.cls-2{fill:#2e5327;}.cls-3{fill:#2f5327;}.cls-4{fill:#2e5227;}.cls-5{fill:#2f5528;}.cls-6{fill:#305629;}.cls-7{fill:#2e5428;}.cls-8{fill:#305528;}.cls-9{fill:#32582a;}.cls-10{fill:#31572a;}.cls-11{fill:#32592b;}.cls-12{fill:#565029;}.cls-13{fill:#2d1a0e;}.cls-14{fill:#2e1a0e;}</style></defs><path class="cls-1" d="M257.52,74.63l-9.91,5.57C260.79,81.67,272.94,87,286,83.88l.12.67-6.4,2.16-5.22.5c-8.23-.59-16.45-1.26-24.69-1.77-7.37-.44-14.71-.14-21.77,2.37-8.72,3.1-17.41,6.29-26.11,9.44l.12.78A49.73,49.73,0,0,1,208,99.12q12.24,3.72,24.4,7.65c8.31,2.69,16.65,5.39,25.52,5.09,4.25-.14,8.49-.93,12.74-1.45a7.8,7.8,0,0,1,2-.22,21.58,21.58,0,0,1-9.26,3.41c-10.91,1.91-21.55-.08-32.15-2.41-8.92-2-17.75-4.4-26.75-5.88-12.59-2.07-21.35,1.93-27.54,16.49-3.12,7.34-4.38,15.15-5,23.06-.59,7.42-1.62,14.84-1.61,22.26,0,6.86.26,14,2.07,20.52s7.24,10.48,13.76,12.48c2.81.87,5.7,1.51,8.59,2.11A32.49,32.49,0,0,1,208.2,208c3.52,2.69,7.43,2.74,11.62,2.18a58.53,58.53,0,0,1,10.9-.53,14.09,14.09,0,0,1,9.18,4l6.69,6.48-.58.73c-.79-.58-1.58-1.17-2.38-1.74-2.52-1.8-4.87-3.92-7.6-5.31-3.42-1.75-7.18-1.26-10.83-.44l-.35.64c2.16,1.36,4.19,3,6.51,4,3.91,1.65,6.18,4.71,8.14,8.17.16.28.07.72.12,1.45a20.39,20.39,0,0,1-1.5-1.64c-2.19-3.09-5.27-4.87-8.76-6.16A45.46,45.46,0,0,1,223,217a10.67,10.67,0,0,0-7.24-1.42,12,12,0,0,1-8.87-1.92,12.79,12.79,0,0,0-3.34-1.06c.32,1.14.35,2.5,1,3.36a6.37,6.37,0,0,0,3.39,2.5c4.35.68,7.14,3.23,9.49,6.68q3.26,4.75,6.88,9.25c.86,1.06,2.21,1.72,3.22,2.75a13,13,0,0,1-7.61-3.6c-2.1-1.89-4.06-4-6-6a11.21,11.21,0,0,0-6.59-3.78,11.94,11.94,0,0,1-8.69-5.58c-3.42-5.37-8.82-7.57-14.74-8.43-4.16-.6-7.74-2.37-11.34-4.26-1-.52-1.92-1.12-2.94-1.55a1.61,1.61,0,0,0-1.43.12,1.49,1.49,0,0,0-.12,1.4c2.29,4.25,4.63,8.45,9.52,10.36,2.47.95,4.86,2.1,7.24,3.25a9.37,9.37,0,0,1,5.46,8c.34,3.29,1.28,4,4.54,4.11a64,64,0,0,1,8.2.5,4.34,4.34,0,0,1,2.6,2.09c1.74,3.2,3.25,6.53,5,10.1a12.91,12.91,0,0,1-2.33-1.85,55.76,55.76,0,0,1-3.86-5.44c-1.28-2.09-3-2.51-5.3-2.22a33.33,33.33,0,0,1-7.9.41c-3-.34-4.67-2.79-5.17-5.48-.91-4.83-4.1-6.89-8.38-8l-3.82-1c-1.86,9.3.34,14.46,7,18.07,5.94,3.21,11.4,7,15.21,12.73,3.17,4.79,4.87,9.89,3.35,15.68-.14-4.34-.75-8.57-3.7-12A34,34,0,0,0,182.68,245c-1.43-.57-2.79-1.32-4.19-2-1.89-.88-2.77-.41-3.51,1.56-.82,2.18-2,4.23-2.66,6.45a8.6,8.6,0,0,0-.28,4.8,22.49,22.49,0,0,0,3.12,5.3c2.85,4.2,2.34,8.51.56,12.89a1.2,1.2,0,0,1-.46.46c-.1.07-.28,0-.63.05,1.36-4.41-.25-7.89-2.9-11.39s-4.87-7-5.24-11.55a13.62,13.62,0,0,1,1.76-7.2c1.15-2.35,1.67-4.87.56-7.28-2.68-5.75-2.82-11.88-3.14-18-.26-4.83-3.32-8.1-6.61-11.16a6.3,6.3,0,0,0-2.15-.77l-.6.44a11.36,11.36,0,0,0,1.17,3c2.48,3.24,2.57,4.49.16,7.62-3.11,4-3.16,5.06-.13,9.17,1.86,2.52,3.55,5.06,3.89,8.31.27,2.67-.14,5-2.18,6.91l-.31-.32c2.62-6.74-.47-8.49-4-11.78-.76-.71-1.65-1.28-2.42-2-3.2-2.89-3.71-5.64-1.83-9.54.39-.79.81-1.57,1.18-2.37,1.29-2.75.73-4.6-1.85-6.13-1.87-1.11-3.11-.63-3.11,1.49,0,3.93.18,7.87.45,11.8.26,3.7.77,7.38,1.09,11.08.33,3.89,2.59,6.8,4.62,9.9a60.14,60.14,0,0,1,5.05,9c1.28,3,.52,6.09-.69,9a1.46,1.46,0,0,1-.42.51c-.09.07-.27,0-.6,0,2-6-.63-10.21-5.06-13.86-6.13-5-10-11.24-9.88-19.5a33.1,33.1,0,0,0-.71-5.14c-.46,0-.68-.06-.75,0-2.49,2.63-5.09,5.16-7.34,8-.54.67-.31,2.58.28,3.42,4.23,5.91,3.24,11.41-.29,17.31-1.7,2.84-2.05,6.48-2.86,9.26a11.55,11.55,0,0,1-.15-8.1c.73-2.15,1.34-4.35,2.1-6.5a6.84,6.84,0,0,0-.91-6.1,44.36,44.36,0,0,0-3.07-4.36,3.62,3.62,0,0,0-4.3-1.44,14.06,14.06,0,0,1-3,.56c-4.12.43-7,2.17-8.22,6.47a10.37,10.37,0,0,1-7.43,7.35c-6,1.57-9.18,5.5-10.64,11.22a2.05,2.05,0,0,1-.44.87c-.22-6.17,2-11.1,7.48-14.23a14.67,14.67,0,0,0,7-8.48c1.4-4.31,4.7-6.42,8.82-7.6,1.9-.55,3.78-1.2,5.69-1.76,6.38-1.87,10.8-5.34,10.71-12.7,0-3.17,1.72-5.56,3.69-7.84a19.32,19.32,0,0,0,2.47-3.39c1.09-2,.44-3.76-1.58-4.81-1.42-.75-2.65-.58-3.26,1a17.16,17.16,0,0,1-7.5,9,4.83,4.83,0,0,0-1.47,2.39c-1.77,4.6-4.77,7.28-10,7.34-1.56,0-3.12,1.12-4.66,1.79a18.21,18.21,0,0,0-2.05,1.34,8.35,8.35,0,0,1,6.49-5c3.46-.66,5.56-2.64,6.14-6.08a10.11,10.11,0,0,1,4.17-6.59c.59-.45.79-1.41,1.17-2.14a7.48,7.48,0,0,0-2.52-.61,40.29,40.29,0,0,0-6.74,1.28,18.45,18.45,0,0,0-11.76,10.41c-1.6,3.45-2.7,7.26-6,9.59a23.6,23.6,0,0,1-3.84,2.13,5.3,5.3,0,0,0-3.52,5.34c0,5.92-2.92,10.1-7.82,13.08a12.34,12.34,0,0,1-2.25.71c1.81-1.69,3.26-2.94,4.6-4.32,2.24-2.31,3.19-5.07,1.88-8.14-2.21-5.16.26-9.15,4.44-11.23a15.15,15.15,0,0,0,4.14-2.88c1.83-1.89,1.14-4.17-1.3-5-3.07-1.09-5.18-.39-7.2,2.17a14.23,14.23,0,0,1-3.26,3.35c-4.88,3-8.05,7.64-11.57,11.94a8.55,8.55,0,0,1-2.69,2.22c1.07-2.67,2.06-5.37,3.24-8A39.92,39.92,0,0,1,77.21,223c.86-1.39,1.06-2.68-.72-3.48-3.74-1.69-7.51-2.69-11.37-.25a12,12,0,0,1-2.22.86c4.51-5.1,9.72-3.94,14.93-2.77,4,.91,5.34.52,7.51-2.89s4.87-4.85,8.76-4.43c1.11.12,2.24.06,3.35.16a6.86,6.86,0,0,0,5.26-1.79A88.17,88.17,0,0,1,114.35,200c2.38-1.36,5.51-1.45,8.32-2a10,10,0,0,0,6.32-3.74,15.33,15.33,0,0,1,4.1-4.09c3.81-2.2,5.65-5.62,7.1-9.52a61.79,61.79,0,0,0,3.7-26.42c-.32-4.45-.7-8.9-1-13.35-.54-8-5.68-13.28-11-18.39a24.09,24.09,0,0,0-5.11-3.5c-3.44-1.9-5.51-1.42-8.35,1.29a135.19,135.19,0,0,1-11,10,15.75,15.75,0,0,1-11.52,3.41c10.67-2.91,16.07-12,22.81-20-2.21.16-4.44.21-6.64.49-4.54.58-9.06,1.48-13.62,1.86a28.15,28.15,0,0,1-16.12-3.18c3,.18,5.46.71,7.79.39,5.55-.75,11.06-1.83,16.56-2.9,6.36-1.23,12.67-2.22,19.12-.4,7.55,2.13,12.67,7.46,17.7,13,1,1.1,2,2.16,3,3.23l.66-.33a35.15,35.15,0,0,0,.5-4.06c.18-15-6.86-26.07-19.13-34-8.14-5.26-16.45-4.75-24.59.39-6.42,4-12.67,8.38-19.9,11a94.54,94.54,0,0,1-21.91,5.1c-5.16.59-10.34,1.06-15.53,1.27a38.24,38.24,0,0,1-8-1,124.79,124.79,0,0,0,65.63-25,31.5,31.5,0,0,0-3.21-.29c-7.54,0-15.09,0-22.63-.09-6.64-.1-12.83,2-19.09,3.72C51.72,84.9,44.08,86.63,36.21,87a30.11,30.11,0,0,1-18.62-5c.77,0,1.3-.16,1.66,0,7.19,3.55,14.64,3.3,22.08,1.21,6.91-1.93,13.72-4.2,21-6.45C47.5,73.28,36.1,65.81,28.82,52.56a5.25,5.25,0,0,1,1.19.86,46.34,46.34,0,0,0,31.21,18.1c6.64.94,13.31,1.58,20.07,2.36-4-7.15-7.35-14-11.46-20.43S60.88,41.09,55.94,34.36a12.41,12.41,0,0,1,2,1c7,6.22,13.67,12.87,18.88,20.74a60.59,60.59,0,0,1,4.37,8.43c2.66,5.9,7.21,8.52,13.57,8.4,5-.09,10.14-.39,15.15,0a51.33,51.33,0,0,1,28.62,11.31c4.34,3.52,8,7.84,11.88,11.67,0-3.31.16-7.14,0-11-.31-5.91-.86-11.78-3-17.44A34.53,34.53,0,0,0,138,53.72c-1.68-1.51-4.55-2-7-2.31-5.8-.82-11.73-.91-17.47-2a122.89,122.89,0,0,1-15.85-4.57A39.33,39.33,0,0,1,84.6,37.49a6.17,6.17,0,0,1-1.67-1.91A58.35,58.35,0,0,0,104.45,44c7.67,1.25,15.51,1.53,23.37,2-10.14-7.89-17.89-17.68-24.12-28.81,7.94,9.43,16.31,18.39,26.88,25.37.22-8.81,5.11-16.8,2.53-25.71l.86-.1c.24.66.53,1.31.72,2,1.85,6.54,1.07,13.05-.17,19.57-.75,3.9.61,6.88,3.93,9.13,6,4,11.27,8.81,14.52,15.38a74.48,74.48,0,0,1,2.89,7.89c1.38-1.07,2.85-2.37,4.48-3.44,2.95-2,5.95-3.86,9-5.56,1.43-.79,2-1.68,1.51-3.17-1.21-3.87-2.46-7.72-3.68-11.58-3-9.46-3.15-19.13-2.12-28.88.14-1.32.22-2.64.38-3.95,0-.23.31-.43.22-.32.85,7.4,1.8,15.05,2.59,22.72.8,7.84,6.05,14,7.93,21.72,13-6.87,26.07-13.54,34.65-26.21l.49.92a66.28,66.28,0,0,1-19,21.56c-5.74,4.3-11.75,8.25-17.81,12.07-11.31,7.13-15.32,17.58-14.4,30.42.46,6.52.92,13,1.52,19.56a15,15,0,0,0,1.41,3.76,13.57,13.57,0,0,0,2.85-2.24c5.47-7.47,10.94-15,14.64-23.5,1.27-2.93,1.64-6.25,2.34-9.41a33.57,33.57,0,0,1,8.54-16.52c3.93-4.07,7.78-8.21,12.07-12.07-1.16,1.93-2.24,3.9-3.48,5.77-2.16,3.27-4.53,6.41-6.62,9.73-3.48,5.54-4.17,11.9-4.91,18.21-.26,2.25-.47,4.5-.73,7,6.77-4.81,14.24-7.72,21.75-10.54,5.5-2.06,8.91-6.5,11.61-11.24,4.53-8,8.54-16.3,12.64-24.53,3.24-6.47,6.35-13,11-18.6.23-.29.4-.63.77-1.23.16.7.31,1,.24,1.07-4.86,7.56-7,16.14-9.48,24.62-2.59,8.84-5.3,17.67-10.7,25.66,5.81-1.8,11.67-3.43,17.4-5.44a88.63,88.63,0,0,0,35.47-23.33c.35-.37.77-.7,1.16-1l.35.5c-4.31,7.33-10.69,12.61-17.35,17.63-1.44,1.08-2.85,2.22-4.27,3.34l0,0-.94.47ZM83,75.79c9.09,1.19,18.35-.46,27.42,2.23L97.14,87.48l.47.68c2.54-1.63,5.06-3.31,7.64-4.88,2.93-1.77,5.92-3.86,9.45-3.6a30.11,30.11,0,0,1,13.74,4.24,50.12,50.12,0,0,1,15.1,13.68c5,7.08,8.26,14.78,8.64,23.52.15,3.54.09,7.09,0,10.64-.18,8.07,1.61,15.8,4.23,23.34,1.13,3.22,2.78,6.26,4.2,9.38l.55-.23c0-2.68,0-5.36,0-8.05a63,63,0,0,1,3.39-20.56A75.43,75.43,0,0,1,178.1,111c4.93-5.93,11.42-9.38,19.24-9.31,4.56,0,9.12,1,13.68,1.53,2.35.3,4.68.72,7,1.09a75.21,75.21,0,0,0-22.88-6.16c3.25-1.69,6.55-3.16,9.85-4.66,5.68-2.57,11.09-5.56,14.73-10.86,1.86-2.69,3.48-5.54,5.21-8.32l-.64-.4c-1,1.42-2,2.85-3,4.27-3.44,4.79-7.52,8.87-13.12,11.1-8.31,3.29-16.66,6.48-23.94,11.86a6.4,6.4,0,0,1-1.74.48c1-2.55,2-4.63,2.65-6.8a56.54,56.54,0,0,0,1.58-6.69c.38-2.11.55-4.26.81-6.39l-.62,0c-.66,2.66-1.22,5.34-2,8-2,7-6.28,12.81-9.94,18.92-5.12,8.56-11.41,16.41-15.37,25.66a10.53,10.53,0,0,1-1.36,1.75c-1.18-7.47-2.06-14.38-3.41-21.2-2.05-10.37-6-19.77-14.77-26.46s-18-11.82-29.19-12.79c-7.42-.64-14.81-1.13-22.24-.37C86.77,75.31,84.9,75.57,83,75.79Zm88.08,156.48.37-.11c0-2.21,0-4.41,0-6.62,0-1.32.59-2.7.37-4-1-5.53-2.56-10.87-5.91-15.5-2-2.7-4.1-5.27-6-8a2.44,2.44,0,0,1,.5-3.58c1.41-1,2.36-.06,3.26.86a22.52,22.52,0,0,0,10.43,5.74c1.91.54,3.72,1.46,5.58,2.19a30.17,30.17,0,0,0,3.55,1.3c3.15.78,6.33,1.5,9.51,2.17a8,8,0,0,1,5.36,3.66c.87,1.37,1.87,2.66,2.81,4a12.68,12.68,0,0,0-5.89-8.26c-6.86-3.54-14.74-4.7-21.21-9.13a1.2,1.2,0,0,0-.43-.13c-5.09-1-8.37-4.25-10.18-8.81-2.07-5.23-3.77-10.62-5.38-16-3.11-10.47-6.21-20.94-9-31.49a43.83,43.83,0,0,0-17.77-25.65c-2.17-1.52-4.9-2.25-7.37-3.34l-.28.6a3.54,3.54,0,0,0,.53.36c8.86,3.67,14.64,10.46,18.86,18.75,3.77,7.41,3.88,15.62,4.85,23.62.67,5.52,1.25,11,2,16.54.7,4.91,1.68,9.79,2.44,14.69,1.11,7.2,3.38,13.77,8.78,19.06,6.14,6,9.81,13.16,9.21,22.1C170.08,228.92,170.78,230.61,171.11,232.27Zm-24.79-59.09a10.11,10.11,0,0,0-.39.94c-1.38,8.11-4.1,15.5-10.77,20.92-2.37,1.93-4.87,3.52-7.94,3.73A34.16,34.16,0,0,0,107.68,206c-3.67,2.91-7.12,9-6.86,13.25a43.7,43.7,0,0,0,2-4.33c.42-1,.56-2.3,1.25-3.07,5.07-5.57,11.07-9.46,18.84-9.91,5.5-.31,10.81-1.12,15.11-5q2.55-2.32,5.18-4.58c1.33-1.16,2.51-.82,2.63.9.37,5.31.1,10.38-4.34,14.38a8.86,8.86,0,0,0-2.67,5.18c-.57,5.17-1.85,9.88-5.64,13.66-1,1-2,2.17-2.94,3.26l.57.53c1.77-1.77,3.49-3.59,5.32-5.29a13.46,13.46,0,0,0,4.27-7.93,16.73,16.73,0,0,1,5.22-9.81,16.1,16.1,0,0,0,3.38-5.89c1.51-4.1.94-8.35.2-12.53C148.33,183.77,147.36,178.76,146.32,173.18ZM139.69,50.46c.38.47.75,1,1.15,1.4a42.43,42.43,0,0,1,10.85,23.06c1.07,7.54,1.18,15.23,2.43,22.74.94,5.67,3,11.15,4.6,16.72a19.49,19.49,0,0,0,.14-4.92,103.42,103.42,0,0,1-1.27-20.57,28.72,28.72,0,0,1,4.13-13.71c2.91-4.82,7.59-7.65,12-10.81,2.06-1.49,4.15-2.94,6.22-4.41l-.41-.51c-9.37,5.4-19.86,9.5-23.92,21.47C153.13,63.58,146,54.52,139.69,50.46ZM96.54,88.65l-.26-.48L95,88.89l.25.47Zm33.09,141.86c-.12,0-.28-.17-.37-.14s-.11.23-.17.36c.13.05.28.17.37.14S129.58,230.64,129.63,230.51Z"/><path class="cls-2" d="M48.71,55.34c-4.37-5.82-5.07-7.11-5.41-10.25,4.39,2,8.71,3.71,12.84,5.81,4.82,2.46,6.63,7.17,8,12,.13.44-.62,1.47-1.19,1.74a12.45,12.45,0,0,1-11.52-.51,44.78,44.78,0,0,1-4.62-3.34l7.41.56.11-.49c-2.64-1.23-5.23-2.56-7.93-3.66a4.24,4.24,0,0,1-3.05-3.73l5.05,2.23H49Zm6-3.8-.54-.08.21.45L58,57.63l.57-.39A7,7,0,0,0,54.71,51.54Zm-2.23,3.21L53,55l-.16-.59c-1.12-4.34-3.72-6.7-7.17-6.85C47.79,49.8,50.13,52.28,52.48,54.75Z"/><path class="cls-3" d="M221.46,41.84c.22,1.64.45,3.3.76,5.55,1.48-3.88,2.76-7.23,4.12-10.82,3.49,5.85,4.71,14.44,2,19.49a13.27,13.27,0,0,1-7,6.52,2.05,2.05,0,0,1-1.71-.1c-3.08-2.72-4.13-10.37-2-14.34L220,53.69l.51-.11c-.19-2.55-.27-5.12-.58-7.66S219.65,43.16,221.46,41.84Zm3.42,8.07c3.46-2.89,4-6.23,1.87-10.49C226.14,42.84,225.51,46.35,224.88,49.91Zm-.44,6.33c3.33-2,4.27-3.87,3.67-7.06Z"/><path class="cls-3" d="M269.36,95.11l-6.15,3.07c4.26,1.13,8.15-2.44,12.46-.12L270,99.84l11,2.57c-7.24,5.7-18.4,7.86-25.86-.32-1.06-1.17-.92-1.92.06-3C259,94.93,263.62,93.85,269.36,95.11Zm-1.84,7.39c3.93,3.25,6.73,3.47,10.43.89Zm1.06,3.07L261.76,103C263.8,105.84,265.05,106.34,268.58,105.57Z"/><path class="cls-3" d="M148.25,31.11c-.47-3.17-.94-6.35-1.4-9.52l.69-.35,2,2.84-1.07-.44c1.26,3.47,2.42,6.69,3.6,10,1.49-3.86.26-6.93-2.59-9.57.3,0,.72-.15.87,0,4.39,4,8.3,8.34,7.65,14.81-.24,2.33-1.34,4.61-2.24,6.83-.55,1.37-1.63,1.4-2.9.64-4.1-2.44-7.07-5.69-8.1-10.9l5.18,3.75c-.81-4.27-5.63-6.25-5.33-11l3.31,3.49.63.42Zm6.05-.43c.22,2.93.42,5.44.63,8.15C156.74,35.78,156.62,33.81,154.3,30.68Z"/><path class="cls-2" d="M38.69,77.77c-2.48,0-5,.09-7.43,0a22.13,22.13,0,0,1-3.8-.85l.08-.68,5.57-.64c-2-.83-3.64-1.41-5.21-2.21s-3-1.82-5.07-3.07c2.43-.52,4.29-1,6.18-1.31,6-1.09,11.69-.8,16.16,4.17,3.71,4.14,3.19,6.27-2,7.71a14,14,0,0,1-10-.7l5.67-2Zm-13-7,9.74,2.61C33,70.32,30.06,69,25.71,70.72Zm9.22-.58,6,3.38C39.81,70.77,37.75,69.78,34.93,70.14Z"/><path class="cls-3" d="M269.24,76.54c.95-6.28,4.64-9.76,10.61-11.39l-3.68,5.07c3.83-1,5.91-4.91,9.76-5.64l.49.63-3.87,3,.5.56,10.14-2.31C288.5,75.81,278.65,81.59,269.24,76.54ZM291,68.35l-9.28,3.91C286.54,73.25,288.75,72.32,291,68.35Zm-14.2,6.88c3.4,1.61,5.21,1.38,7.22-.77Z"/><path class="cls-3" d="M86.6,26.88l-6.29-7.62.57-.6c5.46,1.67,11.39,2.26,15.66,6.79a13.41,13.41,0,0,1,3.73,8.32c.09,1.2-.25,1.69-1.48,1.95-5,1-9.41.39-12.92-3.65l-.05,0h5.85c-3-2.75-7.93-1.91-10.11-6.27l4.66,1.41.8.35.12-.21ZM95,28.41l.61.4-.22-.88c-.4-2.35-1.93-3.7-4.33-4.33Zm-4.6-1.61c-1.17-4.33-3.73-6.45-7.36-6.18Z"/><path class="cls-4" d="M254.71,49.84c.67-2.63,1.26-5.28,2-7.87.24-.77,1-1.36,1.55-2l.47.28-.42,4.23.39.16c1.84-2.63,3.69-5.25,5.53-7.89,2.35,3.5,1.36,10.31-.95,14.26-2.78,4.76-6.94,7.14-12.55,6.69A12.61,12.61,0,0,1,254,43.94v5.84Zm7.49-.66L257,53.25c2.59-.17,4.59-1.14,5.5-3.63l.29-.83Zm2.19-9.83c-1.63,3-3.16,5.91-4.63,8.64C263.54,46.84,265.24,43.85,264.39,39.35Z"/><path class="cls-3" d="M173.47,22.64c1.43-3.67-2.32-7-.14-10.83.64,1.8,1.18,3.3,1.87,5.23.64-3.76,1.18-7,1.79-10.56a19.52,19.52,0,0,1,4.58,8.16c2.06,6.61-.32,13.18-5.66,16-1.45.76-2.27.66-3.19-.91-2.2-3.78-3.33-7.63-1.93-12.11Zm4.46-3.73c2.79-4.21,2.74-6.69,0-9.67Zm.15,5.32c2.73-1.58,3.62-4.07,2.48-6.08C179.72,20.22,178.9,22.23,178.08,24.23Z"/><path class="cls-3" d="M66.61,35.65c-1.88-1.38-3.8-2.72-5.64-4.17a23.2,23.2,0,0,1-2.32-2.33l.44-.43L63,30.3l.4.26-.08-.51-5.75-8.21c6.76,1.26,12.2,3.42,15.46,9.24,1.56,2.8,1.58,5.79,1.06,8.8a2.21,2.21,0,0,1-1.48,1.49c-4,.38-9.35-3-11.26-6.95l5,1.49.56.08ZM69.11,28l-.62-.33.28.85L71,34.1A5.53,5.53,0,0,0,69.11,28ZM60.69,23.7,67,30.5C66.32,25.67,64.1,23.4,60.69,23.7Z"/><path class="cls-2" d="M115.63,6.86c-.18.14-.53.35-.51.41,1.07,2.73,2.17,5.44,3.27,8.16l.61-.07c-.25-2.15-.5-4.3-.76-6.56a4.22,4.22,0,0,1,1.25.71c4.48,4.84,6.11,10.34,4,16.78-.43,1.3-1.24,1.44-2.34,1.28-4.44-.64-8.55-4.95-9.19-9.71l4.89,3.48c-1.2-4.08-5.33-6-5.09-10.31L115.08,15,113.4,5l.55-.3,2,1.82Zm5.69,13.67c1.42-2.68,1.21-5-.69-6.89Z"/><path class="cls-3" d="M220.07,130.6c-3.95-4.35-6-9.26-4.55-15.23.06-.22.17-.42.22-.64.57-3,1.73-3.6,4.57-2.42,3.91,1.62,6.82,5.84,6.6,9.5l-4.23-3.68c.55,4,4.61,6.12,4.18,10.71l-3.29-4.35c.36,3.62.66,6.74,1,9.87l-.5.34-3.35-3.49.38-.38,2,1.79c-.89-3.24-1.71-6.18-2.62-9.46a10.09,10.09,0,0,0,0,7Zm-2-11.61c-1.57,2.08-1.61,4.11,0,6.52Z"/><path class="cls-4" d="M119.88,67l6.33.56c-2.92-2.71-7.29-2.11-9.93-5.84l5.25,1.44-7-7c8.51-1.91,17.58,3.83,19.24,12,.25,1.22.06,2-1.4,2.46C127.54,72,123.56,70.61,119.88,67ZM124.36,62c-.69-3.65-3.87-5.82-6.9-4.89Zm2.06-2.85-.85.67L129,64.35l.74-.54Z"/><path class="cls-3" d="M87.23,57.18c2.72,0,5.54-.39,8.13.2,5.1,1.14,8.22,4.59,9.36,9.85a13.46,13.46,0,0,1-13.91.19l5.68-1.26,0-.55c-2.38-.13-4.77-.16-7.14-.42a13.35,13.35,0,0,1-3-1l.22-.68H91.5l-9-4.44.13-.4,1.48-.09.92.32.89.11.9.37,5.71,1.55.87.24L93,60.49l-5.8-2.87Zm6.93,1.08-.55-.06.3.34,5,3.58.32.26-.05-.51A6.21,6.21,0,0,0,94.16,58.26Z"/><path class="cls-3" d="M200.58,66.17V70.6c1.79-2.78,3.46-5.38,5.14-8l.63.25c.58,6.32,2.23,12.91-3.37,18.07C201.4,82.41,199.05,83,197,84c-.74-2.1-1.93-4.15-2.12-6.29s.57-4.57.91-6.87l.68,0L198,76.16l.42-.08c.14-2.59.21-5.19.47-7.76a8.19,8.19,0,0,1,1-2.36Zm2.49,7c2.67-2.07,3.45-4.79,2.64-8.7-1.12,3.16-2,5.75-2.94,8.34l-.3.41Zm2.3-.09-3.69,5.37C204.69,77,205.5,75.82,205.37,73.05Z"/><path class="cls-3" d="M192.83,26.08l1.51,5.44.37-.07c.29-3.23.59-6.47.88-9.7l.87.06c.23,1.37.46,2.73.68,4.1l4.27-8.21H202a33.53,33.53,0,0,1,1.14,4.65c.76,7.25.13,12.09-6.54,16.69-1.45,1-2.42.67-3.28-.67C190.8,34.49,190.54,30.51,192.83,26.08Zm8.87-6.22c-1,3.05-1.89,6-2.9,9.11C202,26.5,203.26,23.66,201.7,19.86Zm.73,9.27-.85-.53-3,4.63.89.55Z"/><path class="cls-3" d="M249.89,94.34c0,.23.09.58,0,.67-5.9,4.55-13.31,6-19.62.65-1.17-1-1.1-1.68-.33-2.75,2.76-3.84,6.51-5.3,11.35-4.79l-4.57,3.29c3.83.46,6.53-3.16,10.5-1.86l-4.73,2.54h9.63l.28.71-2.53,1.59.34-.75-9.08,1C244.32,96.91,247.14,96.24,249.89,94.34ZM236.67,96c1.59,1.8,3.37,2.55,6.07,1.26Z"/><path class="cls-3" d="M58.3,95c-2,.75-3.94,1.57-5.95,2.24a26,26,0,0,1-3.32.65l-.1-.54,3.67-2.15-.1-.41-8.85.53-.44-.54L45.9,92.5l.39.36-.36.57-.3.37h.56l8.18-1.67a7.44,7.44,0,0,0-6.93-.32l-.44-.4c6.15-4.82,12.89-5,18.24-.52a1.51,1.51,0,0,1,.4,2.38c-2.58,4.14-6.48,5.59-11.23,5.59l4.13-3.59.31-.33ZM59.59,91c-2.46-2.19-4.47-2.49-6.65-1.15Z"/><path class="cls-3" d="M73.66,105.23c0-.18-.07-.46,0-.51,5.23-3.45,10.66-5.46,16.8-2.34,1.25.63,2.49,1.28,3.7,1.9-1,5.21-5.34,7.74-11.83,7L87,108.46c-3.66-.78-6.47,2.72-10.12,1l4.4-1.91-9.14-1.15a5.45,5.45,0,0,1,.76-1c.19-.16.54-.13.82-.19l1.19.19,7.88-.4c-2.93-2.28-5.28-2.25-8.12.11Zm8.75-3.55-.2,1L87.34,104l.22-.8Z"/><path class="cls-2" d="M181.53,31.16c-.6,2.64-1.19,5.27-1.79,7.91l.3.24,3.09-4.86c1.52,2.86.59,8.5-2,11.52a36.92,36.92,0,0,1-3,3c-1.71,1.55-2.32,1.45-3.7-.48-2.56-3.6-2.6-7.4-.78-11.69l1.58,5.11c1.92-3-.66-6.76,1.92-10.08.19,1.83.33,3.17.54,5.1l3.82-8.4.68.12-.36,2.11Zm1.56,8.13-.87-.38-3,5,.78.46Z"/><path class="cls-5" d="M123.52,100.38l4.91.38c-2.07-2.63-6.11-1.63-7.84-5l4.23,1-5.75-6.43c5.73.34,11.25.84,14.74,6a8.62,8.62,0,0,1,1.11,8.25A13.37,13.37,0,0,1,123.52,100.38Zm4-4.63.37.3-.08-.55c-1.78-3.66-3.25-4.65-6-3.93C123.77,93,125.65,94.36,127.52,95.75Zm2-2.54-.8.56,3,4.19.78-.55Z"/><path class="cls-3" d="M59.21,113.34c-1.29,1.33-2.53,2.72-3.89,4a17,17,0,0,1-2.42,1.61l-.39-.54,2.12-2.67-.27-.34-7.75,3.2c1.87-5,4.27-8.84,8.65-11a10,10,0,0,1,10.38.63c-1,4.24-3.2,7.41-7.64,9.34l1.53-3.78.23-.5ZM55.37,112c-4.2,0-6.31,1.43-6.9,4.49Zm-2.28-2.31.23.87,5.5-1.48-.19-.75Z"/><path class="cls-5" d="M256.43,31.06,253,35.18l-.4.81.89-.32,3.41-2.73c.43,2.21-1.54,6.72-4.18,8.85a16.84,16.84,0,0,1-3,1.91c-3.6,1.78-4.87,1.06-5.17-3a9.91,9.91,0,0,1,3-8v5c2.4-2.54,1.44-6.64,5.14-8.75l-1.46,4.34,6.45-5.45.49.44L256.5,31Z"/><path class="cls-5" d="M17.75,89.1c6.44-2.18,11.79-.58,16,4.89-1.07,3.77-5.87,5.41-11.84,3.72L27,95.62c-3.62-.74-6.72,1.41-9.95-.57l4.41-1-8.45-2.83,2-1,.91.64L23.68,92c-1.79-1.76-3.64-2.6-5.93-2.24Z"/><path class="cls-3" d="M274.53,87.21l5.22-.5a5.94,5.94,0,0,1-.87,1.39,23.77,23.77,0,0,1-2.2,1.6c3.32.56,6.16-2.49,9.67-.62l-4.12,1.39,8.07,2.13-.1.63h-9.54l-.1.21L285.63,95a12,12,0,0,1-16.28-3.81ZM280.81,96l.25-.81-4.88-1.55-.28.89Z"/><path class="cls-3" d="M26.53,109.43c2.71-2.36,5.61-4.24,9.4-4.33a9.45,9.45,0,0,1,7.78,3.44,10.73,10.73,0,0,1-9.8,6.4l3-2.86c0-.18.06-.37.08-.55l-.46.25c-1.62.84-3.21,1.76-4.88,2.49a4.29,4.29,0,0,1-2.95.13l2.7-1.69-.06-.49H23l2.59-2.08.23.41c.53.13,1.09.46,1.56.35,1.95-.42,3.87-1,5.92-1.51-2.33-.9-4.46-1-6.47.41Zm5.16-2.11,5.73.5C35.58,106.09,34.09,106,31.69,107.32Zm.3,4.75c0-.06-.09-.15-.14-.15s-.11.08-.16.13l.23.15Z"/><path class="cls-3" d="M232.66,27.33l1.52,4.35.55-.05V23.38l.69,0c.25,1.16.49,2.31.8,3.81l3.14-8.07c2.28,5.33,3.9,10.2.8,15.33a7.83,7.83,0,0,1-5.78,4,2.16,2.16,0,0,1-1.8-.85C231.15,34.23,231.22,31.13,232.66,27.33Zm6.93-5.78c-.52,2.83-.91,5-1.36,7.5C240.73,26.67,241.06,25,239.59,21.55Zm1.52,8.25-.82-.46-2.56,4.31.75.45Q239.8,32,241.11,29.8Z"/><path class="cls-5" d="M184.92,69l2.15-3.16c.68,5.74-1.71,10.44-6.4,12.9-1.19.63-1.74.52-2.45-.62-2.07-3.32-2-7.89.25-10.4.19,1.33.4,2.68.68,4.63,1.67-3,.11-6.5,3.14-9.06-.22,1.77-.37,3-.52,4.08l5.61-5.77.63.52-4.12,6.15Zm-1.27.38.17.3s.14-.11.13-.14a1.17,1.17,0,0,0-.14-.3Z"/><path class="cls-3" d="M167.68,82.23l2.19,3.91.41-.1-1.38-8.1.76-.16,1.46,3.56c.56-2.8,1.06-5.38,1.57-8l.71,0v9A4.77,4.77,0,0,0,174.67,77c4.3,5.17,2.65,13.59-3,15.86a2.29,2.29,0,0,1-2-.75A12.82,12.82,0,0,1,167.68,82.23Zm6.09,5.37.79.41,1.82-5.33-.72-.25Zm.24-5.66-.55-.19L173.39,83l.23,0Z"/><path class="cls-6" d="M143.66,5.16c4.59,4.52,5.59,10.46,2.6,15-1.07,1.61-2.09,2.13-3.7.64-2.27-2.1-3.85-4.48-3.86-8l2.64,2.36.43.25,0-.57c-.69-1.37-1.45-2.71-2-4.12a21.16,21.16,0,0,1-.78-3l.56-.17,1.64,2.82.41,0V3.13l.64-.18,1.51,2.24c-.28.45-.85.94-.79,1.35.24,1.72.66,3.43,1.12,5.63a6.19,6.19,0,0,0,.55-1.92C144.34,8.54,144,6.85,143.66,5.16Z"/><path class="cls-7" d="M93.47,51.14c-3.46,3.12-8,2.33-11.55-2l4.12.54.12-.33-6.83-3.8.37-.69,3.34,1-5.48-5.09C83.61,38.28,89.77,42.46,93.47,51.14ZM80,40.7l5.83,4.67C84.75,41.64,83.23,40.49,80,40.7Z"/><path class="cls-8" d="M270.06,46.66v4.8c2.24-2.31.69-5.89,3.54-8.1l-.46,4.14,5-6.22c1.42,7.18-.83,14.08-6.12,16-.69.25-1.36.54-2.06.76-1.17.37-1.76-.22-2.07-1.29C266.9,53.26,267.43,50.39,270.06,46.66ZM278,42.93l-3.73,7.24C277.15,48.44,278.3,46.37,278,42.93Z"/><path class="cls-8" d="M74.19,85c2.65-4.83,10.94-6.9,14.53-2.27.36.46.59,1.65.35,1.84-2.47,2-4.35,4.92-8,5.23L83.4,86.4c-3,.34-4.09,3.91-7.4,3.55l2.15-2,.41-.62-.91.2-6.49,1L71,87.88l1.94-1.73.17,1.08,6-2.48-.13-.46Z"/><path class="cls-5" d="M101.1,100.21c2.47-2.7,7.62-3.52,11.53-1.82,4.16,1.8,4.5,3.45.79,6.14-1.87,1.36-4.34,1.9-6.54,2.81l-.4-.74c.54-.38,1.1-.73,1.61-1.15s1-.88,1.65-1.51c-3.06-.48-5.19,3-8.22,1.47l3.27-1.72-.1-.49H97.3l-.22-.67,4.06-2.35-2,1.86,6.92-.68,0-.65Z"/><path class="cls-5" d="M157,14.28c.42-3.1-1.12-5.89.59-8.58.21,1,.42,1.94.75,3.43.95-2.76,1.76-5.08,2.56-7.4l.66.08-1.17,8.56.44.2,1.91-4.19c1.2,1.71,1.13,7-.31,9.48-.61,1.09-1.52,2-2.1,3.14-1,2-2.19,1.53-3.5.4-2.4-2.06-3.15-5.5-1.92-9.5Z"/><path class="cls-5" d="M259.67,128.54q.81,2.55,1.64,5.1l-.41.17L259,132.27l0,0-2-5-.42.11c.2,1.65.39,3.3.58,5a10.32,10.32,0,0,1-3.55-13.69,2,2,0,0,1,1.49-.87c3,.29,6.45,4.34,6.43,7.42l-2.67-1.77-.39.38,4.35,5.78-.53.43L260,128.13l-.55-.08Z"/><path class="cls-5" d="M19,60.3l4,.32.1-.51-6.93-2.65.29-.72,3.64.52-6.22-4.71.31-.61L21,55.21l.46-.5L19.1,52.44c3.69-.7,8.1,2.08,9.83,6.37,1.52,3.79.91,4.67-3.2,4.65A8.58,8.58,0,0,1,19,60.3Zm2.8-4.44.36.29L22,55.61l-.45-1-.57.58Z"/><path class="cls-6" d="M45.06,34.48l-3.6-5.21.62-.59,5.06,5.2.7-.6-2.32-2.87C50.47,30,55.76,36.76,54,41.59c-.5,1.37-1.14,2-2.81,1.32-2.45-1-5-1.87-6.74-4.49l3.7.48c-1.4-2.4-5-1.78-6-4.89l2.41.81.88.29Zm2.73-1-.41.21.58,1,.28-.15Z"/><path class="cls-5" d="M244.57,64.84l1.83-3.4c1.73,5.11-1.72,10.46-8.26,12.71-2.46-3-2.37-7.29.43-11,.1,1.46.19,2.69.3,4.35,2-2.5.36-5.72,3-7.71v3.72l3.32-5.66.7.33c-.69,2.11-1.37,4.22-2.06,6.33Zm-.36,0-.27-.3-.78.73.16.21Z"/><path class="cls-5" d="M34.13,45.31l-2.26-6.1.53-.43,3.73,2.73L34.38,41l-.8-.29.38.61,2.85,5,.44-.17L36.1,41.47A10.68,10.68,0,0,1,41,54.38c-.56,1.45-1.6,1.19-2.53.86a9.82,9.82,0,0,1-6.2-5.92A2.07,2.07,0,0,0,32.6,49l2.49,1.27.39-.27-4.37-5.39.45-.44,2.22,1.41.42.23Z"/><path class="cls-6" d="M140.06,64.78c2.95,1.11,4.25,3.67,4.87,6.39a8,8,0,0,1-2.62,8.41,12.32,12.32,0,0,1-6.56-8.27l3.39,2.47.35-.27-4.25-6,.57-.41,1.79,1.6.61.38-.19-.88q-.83-2.7-1.64-5.4l.56-.58,3.17,2.58-2.25-1.08,2.92,5.82.52-.15Z"/><path class="cls-7" d="M212.44,45.28v5.36l.32.17c.43-1.49.85-3,1.28-4.47l.44.13c2.21,6.52.32,11.23-5.58,13.79A10.16,10.16,0,0,1,207,49.87l1.51,3.5.49-.11-.6-6.74.75-.08c.32.94.64,1.88,1.14,3.32l1.2-7.15L212,42c.13.42.27.84.41,1.25l-.06,1.37c0,.07-.06.15,0,.21a2.71,2.71,0,0,0,.17.39Z"/><path class="cls-5" d="M7.66,68l3.23,1.11L6.16,63.74C13,62.4,19.8,68.3,19.44,75.18c-3.91,1.62-7.34.56-10-3.16l3.2.47.19-.43-5.61-3.4Zm4.89.16.5.56.22-.13-.37-.74c-.79-2.8-1.88-3.64-4.35-3.37Z"/><path class="cls-5" d="M279.92,118.75l-5.37-.27c0-.14-.08-.2-.22-.18l-.56,0,.31.36.49.36,3.28,1.73c-4.49,2.33-10.16.39-12.91-4a1.72,1.72,0,0,1,.32-1.5c1.9-2.36,6.68-3.21,9.45-1.79l-3.5,1.52.13.43,7.17-.66.08.71-3.1,1.17,7.05,1.62,0,.45-1.74.44Z"/><path class="cls-8" d="M161.87,48.43c1.9,3.11,3.41,6.44,1.88,10-.75,1.77-2.46,3.18-3.87,4.62a1.9,1.9,0,0,1-1.74-.4c-1.68-2.48-3-5.13-2.24-8.53L157.82,57c1.16-2.57-2.31-4.68-.6-7.33.49,1,.92,1.93,1.51,3.19.26-2.56.48-4.72.77-7.46l1.39,1.69-.22.24v7.38a6,6,0,0,0,.88-6Z"/><path class="cls-6" d="M96.1,19.71c-1-.95-2.06-1.87-3-2.87a3,3,0,0,1-.82-2l2.88,1.86-3-6.27.52-.4,1.74,2,2.89,4.36.7-.41-2.2-4c5.31,1,8.08,8.09,5.18,13.25-4.1-.88-6.09-2.43-7.7-6.07l2.45.93.83.29Z"/><path class="cls-8" d="M87.22,124c3.79-4.35,7.85-5.45,12.09-3.39,1.35.66,1.77,1.41.88,2.75-1.83,2.76-4,5-7.67,4.7a14.31,14.31,0,0,0-3.07.54l2.22-2.76-6.45,2.43.65-1.67,6-2.79-.07-.37Z"/><path class="cls-9" d="M68,63.4c-.53-1.81-1.06-3.62-1.63-5.59a45,45,0,0,1,4.92,3c3.51,2.84,4.48,6.61,3.64,10.94-3.74.76-6.7-1-8.36-5.08l2.17.91.87.25-.4-.63c-.86-.91-1.76-1.79-2.55-2.76a3.18,3.18,0,0,1-.75-2.24l1.82,1.53.54.07Z"/><path class="cls-10" d="M187.26,13.09l1,3.17h.3c.19-2.3.38-4.59.58-6.89l.65,0,.28,3,3.44-5.7c2.54,6.87,1.46,12.86-4.48,16A7.34,7.34,0,0,1,187.26,13.09Zm4.3,1.36c2.06-1.72,2.79-3.33,1.73-5.51C192.77,10.58,192.26,12.23,191.56,14.45Z"/><path class="cls-8" d="M217.08,66.65c.49,4.1,1.39,8.07-1.26,11.56-1.49,2-5.36,4.06-5.86,3.06a14.91,14.91,0,0,1-1.16-5.86c-.05-1.07.72-2.17,1.33-3.81l.83,4h.26q.57-3.23,1.12-6.44l.76.14.12,2.65Zm-2.6,7.25.86.37q1.16-2.74,2.3-5.47l-.76-.33Z"/><path class="cls-8" d="M222.58,98.78l2.58,1.65c-5.5,1.28-9.13-.15-11.9-4.62,2.41-3,5.05-3.77,9.41-2.46l-3,1.38.07.38h6.63v.41l-3,.85,6.23,2.18-.13.71-6.87-1.16L221.14,98Z"/><path class="cls-10" d="M257.3,60.91c-.26.8-.53,1.61-.8,2.41l.44.2L260,58.7l.64.38c-.25.63-.5,1.27-.76,1.91,0,.18,0,.35,0,.53l.35-.29,4.57-3.37c-1.1,3.16-.91,6.71-3.75,9.06a8.18,8.18,0,0,1-6.58,1.9,1.85,1.85,0,0,1-1.27-1.13c-.41-2,1.54-5.89,3.34-6.9.18-.1.52.08.79.12Z"/><path class="cls-10" d="M237.81,104.6c2.08-3,5-3.48,8.79-2.84l-3,1.79h6.62l0,.48-2.84.6,5.9,2.36C246.69,110.16,241.38,109.85,237.81,104.6Z"/><path class="cls-8" d="M219.87,21.51l1.53,3.21.25-.1c-.13-2.18-.26-4.35-.4-6.53l.63,0,.76,2.79,2-5.24c.76,1.31.42,2.35,1.71,3.4.9.73.72,3,.66,4.63a6.78,6.78,0,0,1-4.2,6.26,2,2,0,0,1-1.84-.21A9.17,9.17,0,0,1,219.87,21.51Z"/><path class="cls-6" d="M106.06,58.5A38.13,38.13,0,0,1,102.92,56a4.83,4.83,0,0,1-.77-1.75l0,.05,1.62.67.39.33,0-.6L101,50.24c3.44,1.34,6.77,1.19,8.85,4.21a7.8,7.8,0,0,1,.56,8.34A10.05,10.05,0,0,1,103,58l2.85.8.55.08Z"/><path class="cls-6" d="M139.7,110,138,105.27l.22-.4a17.8,17.8,0,0,0,1.95,1.44c.64.36,1.49.38,2,.81,3.34,2.59,5,7,2.72,10.77-.66,1.09-1.39,1.53-2.68.61-2.25-1.59-3.55-3.29-3.87-5.62l2.38,1.52.33-.23-3.6-4.5.45-.38,1.46,1.08.53.06Z"/><path class="cls-9" d="M109.87,42.12l2.81-1,0-.33-6.12-.38,0-.6,2.23-.32-4.62-3.63.23-.79c3.1.24,6.24.3,9.29.82a6.46,6.46,0,0,1,3.21,2.25c2.12,2.41,1.61,4.08-1.45,4.57a35.36,35.36,0,0,1-5.64.06Z"/><path class="cls-9" d="M210.67,118l-1.4-2.25-.29.13.63,5.54-.7.09c-.23-.76-.47-1.52-.76-2.46l-1.65,5.64c-3.31-4.41-3.6-9.39-.93-13,1.55-2.1,2.69-2.24,4,.05,1,1.81,1.26,4,1.84,6.07Z"/><path class="cls-6" d="M138.33,41.77c-.7-2.14-1.24-3.82-1.88-5.77,2.68,1.77,5.2,3.08,7.26,4.91a5.83,5.83,0,0,1,1.75,6.64c-.16.44-.8,1.1-1.09,1-2.56-.54-5.15-1.12-6.73-4l2.88.55c-1.09-2.09-4.2-2-4.53-4.93Z"/><path class="cls-6" d="M191,36.71c2.69,5.25,1.92,9.59-2.27,12.38C186,47.21,185,44.58,185.29,41l1.56,2,.42-.16c-.45-1.79-.89-3.57-1.33-5.36l.54-.11c.41.75.82,1.49,1.56,2.86V33.87l.49-.22,1.36,2,0,0-.79-.31c.2,1.83.39,3.6.57,5.36l.6,0c.1-1.19.21-2.38.31-3.57Zm-3.5,6.75-.14-.16-.14.15.21.16Z"/><path class="cls-11" d="M240.12,121.08l1.63,3.72c-5.45-1-8.92-4.67-8.89-8.8,0-1.57.54-2.12,2.12-1.94,2.08.23,3.65,1.16,5.46,3.61l-3-.62,4.59,3.67-.32.38-1.17-.34-.85-.34Z"/><path class="cls-9" d="M126.26,7.55c-.15-1.54-.26-2.76-.41-4.27,4.43,2.9,5.22,4,5.39,6.83a6.6,6.6,0,0,1-2.69,6.22,8.9,8.9,0,0,1-4.28-6.83l2.16,1.83.34-.21q-1.26-2.38-2.54-4.77l.44-.23Z"/><path class="cls-11" d="M171.24,99c.94,8.29-.64,11.48-6,12.8a6.16,6.16,0,0,1,.26-7.9c.08.88.16,1.65.23,2.42l.4,0c.32-1.72.65-3.45,1-5.18l.65.07.2,2Z"/><path class="cls-9" d="M117.21,136.05l.32-2.17-.42-.19-2.36,4.36-.48-.28.29-1.92-3.19,1.88c-1.48-4.15,2.5-8.75,6.79-9.79.34-.08,1.06.62,1.31,1.1C120.6,131.22,119.78,133.88,117.21,136.05Z"/><path class="cls-10" d="M208.08,20.67l.3,2.7L210.17,19a2.58,2.58,0,0,1,.55.14c-.09,2.66,2.91,4.56,1.62,7.62-.91,2.17-3.29,5.24-4.55,4.93s-2.45-3.74-2.23-6a15.49,15.49,0,0,1,.51-2c.46,1.05.84,1.94,1.48,3.43V20.68Z"/><path class="cls-8" d="M74.37,19.38,71.9,15.47l.55-.37,1.28,1v-4.7l.58-.4.79,1.38c.22,1.68.45,3.36.67,5l.7-.14V13.62c.65.89,1.36,1.75,1.92,2.69,1.71,2.91,1.52,5.72-.7,8.52a8.76,8.76,0,0,1-5.5-6.28c.62.42.87.56,1.09.74s.45.38.68.58l.61.4Z"/><path class="cls-9" d="M104.9,89.79c3.26-1,6.24-1.88,8.95-.09,1.42.93,2.41,2.49,3.63,3.79-3.68,2.8-6.64,2.39-10.45-1.22l2.32-.21Z"/><path class="cls-9" d="M260.05,75.53l3.26-2.94.41.43-1.12,1.41-.09.52.42-.27,3.72-.7a34.15,34.15,0,0,1-3.2,4.74,6.51,6.51,0,0,1-6.46,1.8c-1.23-.26-1.46-.88-1.08-1.89.5-1.35,1.07-2.67,1.61-4l0,0c.31-.16.62-.32.94-.47l0,0,1.3.85-.28.81Z"/><path class="cls-9" d="M285.86,57.72l3.07-2.82c-.16,1-.24,1.53-.33,2.08l4.15-1.8c-.53,4.86-5.68,8.41-9.78,7-1.27-.44-1.63-1.18-1-2.13,1-1.6,2.3-3.05,3.47-4.56l.72.45c-.2.49-.41,1-.61,1.46,0,.18-.06.36-.08.54Z"/><path class="cls-9" d="M37.25,99.9l-4,1.41-.18-.42,1.25-1-4-.61-.17-.44L35.83,96a1.62,1.62,0,0,1,.41-.17,5.9,5.9,0,0,1,5.36,2,1.38,1.38,0,0,1,0,1.32c-1.42,1.52-3,2.77-5.32,2.33l1.16-1.26.3-.34Z"/><path class="cls-10" d="M82.12,118.16l-5.71,3-.33-.54,1.53-1.76-4.52,1.55-.2-.45,1.77-1.23-4.55-.2C73.3,114.52,79.25,113.4,82.12,118.16Z"/><path class="cls-11" d="M216.61,35l1.4-1.71c2.28,2.42,1.13,7.17-1.88,8.16A1.47,1.47,0,0,1,214.8,41a4.71,4.71,0,0,1-.09-5.15L215.3,38c.21-1.73.34-2.82.54-4.44Z"/><path class="cls-12" d="M211.36,33l-.49-.92q1.74-3.1,3.46-6.21l.5.25Z"/><path class="cls-11" d="M17.75,89.1v.69l-1.82,1.08L15,90.23Z"/><path class="cls-2" d="M116,6.47l.85.67-.24.31-.94-.59Z"/><path class="cls-8" d="M160.89,47.13l1,1.3-.32.29-.88-1.35Z"/><path class="cls-1" d="M279.68,52.73l.91-.87.31.24L280,53.23Z"/><path class="cls-3" d="M46.37,92.07l.63-.65.44.4-.73.63Z"/><path class="cls-3" d="M220.69,131.21l-.62-.61.34-.44.66.67Z"/><path class="cls-6" d="M190.28,36.13c.24.2.49.39.74.58l-.46.45-.24-1.07Z"/><path class="cls-1" d="M159.22,242.59l-.61.48.3-.8Z"/><path class="cls-6" d="M102.15,54.26l-.4.14v-.14c.12,0,.25.05.38.06Z"/><path class="cls-3" d="M25.91,109.85l.62-.42.34.37-.54.34Z"/><path class="cls-3" d="M25.63,110.14a.61.61,0,0,1,.28-.29l.42.29-.47.41Z"/><path class="cls-5" d="M32.28,49.32l-.06-.55.38.27A2.07,2.07,0,0,1,32.28,49.32Z"/><path class="cls-3" d="M85.87,32.07l-.3-.23.3-.07c0,.12,0,.23-.05.34Z"/><path class="cls-10" d="M257.34,60.91l-.26-.25.2-.15c0,.13,0,.26,0,.4Z"/><path class="cls-8" d="M74.22,84.94l-.2.46-.42-.46Z"/><path class="cls-6" d="M189.89,35.6l.39.53,0,0-.45-.44Z"/><path class="cls-3" d="M45.9,92.5l.47-.43.34.38-.42.41Z"/><path class="cls-13" d="M83,75.79c1.87-.22,3.74-.48,5.61-.67,7.43-.76,14.82-.27,22.24.37,11.21,1,20.49,6.15,29.19,12.79s12.72,16.09,14.77,26.46c1.35,6.82,2.23,13.73,3.41,21.2a10.53,10.53,0,0,0,1.36-1.75c4-9.25,10.25-17.1,15.37-25.66,3.66-6.11,7.93-11.94,9.94-18.92.76-2.63,1.32-5.31,2-8l.62,0c-.26,2.13-.43,4.28-.81,6.39a56.54,56.54,0,0,1-1.58,6.69c-.68,2.17-1.64,4.25-2.65,6.8a6.4,6.4,0,0,0,1.74-.48c7.28-5.38,15.63-8.57,23.94-11.86,5.6-2.23,9.68-6.31,13.12-11.1,1-1.42,2-2.85,3-4.27l.64.4c-1.73,2.78-3.35,5.63-5.21,8.32-3.64,5.3-9.05,8.29-14.73,10.86-3.3,1.5-6.6,3-9.85,4.66a75.21,75.21,0,0,1,22.88,6.16c-2.35-.37-4.68-.79-7-1.09-4.56-.58-9.12-1.49-13.68-1.53C189.52,101.57,183,105,178.1,111a75.43,75.43,0,0,0-13.55,24.69,63,63,0,0,0-3.39,20.56c0,2.69,0,5.37,0,8.05l-.55.23c-1.42-3.12-3.07-6.16-4.2-9.38-2.62-7.54-4.41-15.27-4.23-23.34.08-3.55.14-7.1,0-10.64-.38-8.74-3.68-16.44-8.64-23.52a50.12,50.12,0,0,0-15.1-13.68,30.11,30.11,0,0,0-13.74-4.24c-3.53-.26-6.52,1.83-9.45,3.6-2.58,1.57-5.1,3.25-7.64,4.88l-.47-.68L110.45,78C101.38,75.33,92.12,77,83,75.79Z"/><path class="cls-13" d="M171.11,232.27c-.33-1.66-1-3.35-.92-5,.6-8.94-3.07-16.09-9.21-22.1-5.4-5.29-7.67-11.86-8.78-19.06-.76-4.9-1.74-9.78-2.44-14.69-.79-5.49-1.37-11-2-16.54-1-8-1.08-16.21-4.85-23.62-4.22-8.29-10-15.08-18.86-18.75a3.54,3.54,0,0,1-.53-.36l.28-.6c2.47,1.09,5.2,1.82,7.37,3.34a43.83,43.83,0,0,1,17.77,25.65c2.78,10.55,5.88,21,9,31.49,1.61,5.39,3.31,10.78,5.38,16,1.81,4.56,5.09,7.83,10.18,8.81a1.2,1.2,0,0,1,.43.13c6.47,4.43,14.35,5.59,21.21,9.13a12.68,12.68,0,0,1,5.89,8.26c-.94-1.33-1.94-2.62-2.81-4a8,8,0,0,0-5.36-3.66c-3.18-.67-6.36-1.39-9.51-2.17a30.17,30.17,0,0,1-3.55-1.3c-1.86-.73-3.67-1.65-5.58-2.19a22.52,22.52,0,0,1-10.43-5.74c-.9-.92-1.85-1.9-3.26-.86a2.44,2.44,0,0,0-.5,3.58c1.88,2.75,4,5.32,6,8,3.35,4.63,4.93,10,5.91,15.5.22,1.26-.33,2.64-.37,4-.07,2.21,0,4.41,0,6.62Z"/><path class="cls-14" d="M146.32,173.18c1,5.58,2,10.59,2.91,15.62.74,4.18,1.31,8.43-.2,12.53a16.1,16.1,0,0,1-3.38,5.89,16.73,16.73,0,0,0-5.22,9.81,13.46,13.46,0,0,1-4.27,7.93c-1.83,1.7-3.55,3.52-5.32,5.29l-.57-.53c1-1.09,1.9-2.23,2.94-3.26,3.79-3.78,5.07-8.49,5.64-13.66a8.86,8.86,0,0,1,2.67-5.18c4.44-4,4.71-9.07,4.34-14.38-.12-1.72-1.3-2.06-2.63-.9q-2.62,2.25-5.18,4.58c-4.3,3.91-9.61,4.72-15.11,5-7.77.45-13.77,4.34-18.84,9.91-.69.77-.83,2-1.25,3.07a43.7,43.7,0,0,1-2,4.33c-.26-4.23,3.19-10.34,6.86-13.25a34.16,34.16,0,0,1,19.54-7.24c3.07-.21,5.57-1.8,7.94-3.73,6.67-5.42,9.39-12.81,10.77-20.92A10.11,10.11,0,0,1,146.32,173.18Z"/><path class="cls-14" d="M139.69,50.46c6.27,4.06,13.44,13.12,15.89,30.46,4.06-12,14.55-16.07,23.92-21.47l.41.51c-2.07,1.47-4.16,2.92-6.22,4.41-4.38,3.16-9.06,6-12,10.81a28.72,28.72,0,0,0-4.13,13.71,103.42,103.42,0,0,0,1.27,20.57,19.49,19.49,0,0,1-.14,4.92c-1.58-5.57-3.66-11-4.6-16.72-1.25-7.51-1.36-15.2-2.43-22.74a42.43,42.43,0,0,0-10.85-23.06C140.44,51.42,140.07,50.93,139.69,50.46Z"/><path class="cls-13" d="M96.54,88.65l-1.34.71L95,88.89l1.33-.72Z"/><path class="cls-14" d="M129.63,230.51c0,.13-.08.32-.17.36s-.24-.09-.37-.14c.06-.13.08-.32.17-.36S129.51,230.46,129.63,230.51Z"/></svg>